<?xml version="1.0" standalone="no"?>
<!DOCTYPE svg PUBLIC "-//W3C//DTD SVG 20010904//EN"
 "http://www.w3.org/TR/2001/REC-SVG-20010904/DTD/svg10.dtd">
<svg version="1.0" xmlns="http://www.w3.org/2000/svg"
 width="1024.000000pt" height="1024.000000pt" viewBox="0 0 1024.000000 1024.000000"
 preserveAspectRatio="xMidYMid meet">
<metadata>
Created by potrace 1.11, written by Peter Selinger 2001-2013
</metadata>
<g transform="translate(0.000000,1024.000000) scale(0.100000,-0.100000)"
fill="#000000" stroke="none">
<path d="M2265 10229 c-747 -52 -1192 -239 -1626 -685 -177 -183 -281 -326
-382 -529 -126 -254 -192 -502 -234 -885 -17 -156 -18 -326 -18 -3010 0 -2965
-1 -2913 41 -3195 77 -523 265 -907 619 -1260 419 -419 853 -599 1584 -655
183 -14 5554 -14 5741 0 316 24 543 64 760 136 363 120 677 335 946 647 336
390 488 808 534 1467 14 198 14 5522 0 5720 -51 725 -231 1166 -647 1586 -429
432 -873 613 -1631 664 -186 12 -5505 11 -5687 -1z m722 -1766 c81 -54 235
-204 308 -298 34 -44 114 -159 177 -255 64 -96 166 -245 226 -330 316 -442
371 -560 375 -810 1 -63 -2 -125 -7 -138 -4 -12 -73 -105 -152 -205 -247 -309
-290 -398 -282 -575 9 -184 93 -339 333 -612 119 -136 1248 -1247 1350 -1329
243 -196 441 -278 603 -252 136 22 234 79 494 287 92 74 180 139 195 145 38
15 230 12 313 -5 145 -31 278 -101 533 -283 287 -205 352 -251 472 -328 248
-160 389 -284 498 -436 39 -56 48 -76 53 -125 5 -55 2 -67 -40 -162 -119 -267
-211 -416 -338 -548 -174 -181 -357 -272 -611 -304 -403 -50 -1034 116 -1732
456 -521 253 -890 510 -1356 940 -53 49 -192 179 -310 289 -118 109 -225 208
-238 220 -67 56 -543 562 -731 775 -348 397 -589 761 -810 1224 -216 452 -353
850 -422 1221 -18 99 -22 156 -22 325 0 188 3 213 26 300 94 351 330 586 790
792 62 27 127 54 143 59 53 14 103 3 162 -38z"/>
</g>
</svg>
