<?xml version="1.0" standalone="no"?>
<!DOCTYPE svg PUBLIC "-//W3C//DTD SVG 20010904//EN"
 "http://www.w3.org/TR/2001/REC-SVG-20010904/DTD/svg10.dtd">
<svg version="1.0" xmlns="http://www.w3.org/2000/svg"
 width="700.000000pt" height="700.000000pt" viewBox="0 0 700.000000 700.000000"
 preserveAspectRatio="xMidYMid meet">
<g transform="translate(0.000000,700.000000) scale(0.100000,-0.100000)"
fill="#000000" stroke="none">
<path d="M1020 6993 c-45 -16 -267 -118 -344 -158 -271 -142 -444 -307 -553
-527 -56 -114 -95 -248 -111 -378 -13 -104 -3 -454 13 -480 2 -3 6 -30 10 -60
4 -30 9 -58 11 -61 2 -3 6 -21 9 -40 3 -19 8 -42 11 -51 3 -9 6 -25 8 -35 22
-113 153 -499 242 -710 8 -18 20 -48 28 -65 49 -117 90 -205 173 -373 52 -104
98 -194 102 -200 5 -5 28 -46 51 -90 37 -69 95 -166 191 -318 25 -40 267 -368
278 -377 4 -3 36 -40 71 -84 36 -43 74 -88 85 -100 11 -12 54 -59 95 -106 41
-47 84 -94 95 -106 11 -11 63 -67 115 -124 52 -57 102 -111 110 -120 8 -9 33
-36 54 -60 194 -221 256 -283 451 -455 75 -65 205 -184 346 -315 175 -163 248
-229 324 -295 50 -43 92 -81 95 -84 17 -22 267 -213 377 -290 223 -154 393
-253 723 -420 319 -161 724 -327 920 -376 8 -3 42 -12 75 -21 33 -9 67 -17 75
-19 8 -2 53 -13 100 -24 47 -11 99 -22 115 -25 17 -3 41 -8 55 -11 14 -2 48
-7 75 -10 28 -4 82 -10 120 -14 157 -19 473 5 537 40 10 5 23 9 30 9 26 0 166
68 235 114 76 50 207 171 265 246 87 112 182 278 247 430 13 30 33 73 43 95
27 56 31 147 9 205 -33 85 -75 138 -222 275 -97 90 -471 360 -824 593 -110 73
-205 136 -210 140 -143 99 -324 161 -515 177 -160 14 -202 3 -300 -76 -170
-139 -263 -211 -325 -254 -213 -146 -406 -171 -612 -79 -60 26 -201 117 -243
156 -14 13 -38 34 -55 47 -108 83 -245 212 -595 561 -168 168 -378 376 -467
463 -147 144 -312 316 -424 442 -24 27 -54 61 -67 75 -40 45 -129 173 -161
233 -106 197 -113 363 -23 557 27 60 105 169 227 320 150 185 178 241 181 363
1 49 -2 103 -7 120 -4 18 -11 47 -14 65 -22 130 -133 350 -275 547 -20 28 -70
97 -110 155 -41 58 -77 107 -80 110 -4 3 -22 28 -40 55 -89 132 -415 566 -462
616 -59 63 -134 124 -190 157 -37 21 -120 35 -148 25z"/>
</g>
</svg>
