<svg xmlns="http://www.w3.org/2000/svg" viewBox="0 0 100 100"><path fill="#FFF" fill-rule="nonzero" d="M14.677.063c-.638.147-1.216.503-1.812.763-1.342.584-2.655 1.173-3.927 1.9-1.65.944-3.356 2.052-4.656 3.455-7.39 7.975-3.71 19.795-.146 28.708.794 1.986 1.624 3.976 2.574 5.893 2.023 4.076 4.173 8.075 6.823 11.786 3.058 4.28 6.618 8.098 10.192 11.937 1.74 1.87 3.376 3.906 5.192 5.697 1.415 1.395 3.03 2.629 4.487 3.987 4.358 4.062 8.614 8.227 13.44 11.75 4.31 3.145 8.955 5.607 13.743 7.92 5.302 2.56 10.972 4.578 16.764 5.621 4.001.72 8.075.85 11.93-.646 2.181-.846 4.035-2.378 5.58-4.109 1.846-2.066 3.146-4.574 4.237-7.101.506-1.172 1.107-2.147.834-3.475-.428-2.077-2.768-4.038-4.308-5.326-1.93-1.616-11.971-8.662-15.102-10.41-2.11-1.179-4.106-1.694-6.494-1.798-.843-.037-1.6-.228-2.416.129-1.054.46-1.979 1.43-2.87 2.143-2.816 2.255-5.782 4.91-9.665 4.337-3.552-.524-6.49-3.55-9.061-5.784-2.717-2.361-5.126-5.103-7.702-7.617C39 56.59 35.578 53.44 32.472 50c-2.428-2.69-5.432-5.843-5.7-9.67-.235-3.354 2.007-6.013 4.027-8.463 1.288-1.563 2.73-3.005 2.755-5.137.061-5.16-3.124-8.976-5.931-12.995-2.023-2.896-4.32-5.941-6.391-8.8-1.187-1.637-2.172-2.8-3.686-3.91-.876-.643-1.74-1.22-2.869-.96z"/></svg>